<?xml version="1.0" encoding="UTF-8"?>
<svg width="156px" height="30px" viewBox="0 0 156 30" version="1.1" xmlns="http://www.w3.org/2000/svg" xmlns:xlink="http://www.w3.org/1999/xlink">
    <title>页头logo</title>
    <defs>
        <linearGradient x1="22.0207418%" y1="36.8186591%" x2="105.479404%" y2="96.115339%" id="linearGradient-1">
            <stop stop-color="#36D0AC" offset="0%"/>
            <stop stop-color="#60F770" offset="100%"/>
        </linearGradient>
        <linearGradient x1="3137.0187%" y1="1172.00154%" x2="3815.28852%" y2="2740.90572%" id="linearGradient-2">
            <stop stop-color="#36D0AC" offset="0%"/>
            <stop stop-color="#60F770" offset="100%"/>
        </linearGradient>
        <linearGradient x1="278.329849%" y1="1293.99801%" x2="405.535673%" y2="1533.275%" id="linearGradient-3">
            <stop stop-color="#36D0AC" offset="0%"/>
            <stop stop-color="#60F770" offset="100%"/>
        </linearGradient>
        <linearGradient x1="45.1806076%" y1="20.5386518%" x2="101.915321%" y2="122.585821%" id="linearGradient-4">
            <stop stop-color="#36D0AC" offset="0%"/>
            <stop stop-color="#60F770" offset="100%"/>
        </linearGradient>
        <linearGradient x1="0.874227885%" y1="-13.0639325%" x2="68.5438152%" y2="89.3381378%" id="linearGradient-5">
            <stop stop-color="#F76B1C" offset="0%"/>
            <stop stop-color="#FBD16A" offset="100%"/>
        </linearGradient>
        <linearGradient x1="21.1700576%" y1="-28.0606642%" x2="60.3618891%" y2="72.4658634%" id="linearGradient-6">
            <stop stop-color="#F76B1C" offset="0%"/>
            <stop stop-color="#F88E37" offset="37%"/>
            <stop stop-color="#FBD16A" offset="100%"/>
        </linearGradient>
        <linearGradient x1="-3.29596982%" y1="-0.438954182%" x2="61.1146722%" y2="56.8684431%" id="linearGradient-7">
            <stop stop-color="#F76B1C" offset="0%"/>
            <stop stop-color="#FBD16A" offset="100%"/>
        </linearGradient>
        <linearGradient x1="-20.6525508%" y1="-59.7512522%" x2="59.6567672%" y2="75.6778457%" id="linearGradient-8">
            <stop stop-color="#F76B1C" offset="0%"/>
            <stop stop-color="#FBD16A" offset="100%"/>
        </linearGradient>
    </defs>
    <g id="页面-1" stroke="none" stroke-width="1" fill="none" fill-rule="evenodd">
        <g id="页头logo" transform="translate(-0.000000, 0.000000)" fill-rule="nonzero">
            <path d="M21.0764739,15.0497174 C20.4789896,14.8999633 19.9184702,14.6292749 19.4295211,14.2544225 C18.940572,13.8795701 18.533565,13.4084719 18.2336185,12.8701934 C18.213219,12.8306032 18.2032405,12.7864393 18.204666,12.7418819 C18.2060915,12.6973737 18.2188719,12.6538983 18.2418275,12.6157344 C18.2647339,12.5775213 18.2969799,12.5458 18.3356161,12.5235705 C18.3742031,12.501341 18.4178531,12.4893902 18.4623879,12.4887508 L19.7041034,12.4887508 C18.7885342,11.7917182 18.0472703,10.8914234 17.5388065,9.85888267 C17.0303918,8.82629277 16.76859,7.68968651 16.7740954,6.53862124 C16.8121908,5.3275068 17.1531821,4.14531531 17.7658554,3.10013525 C18.3785779,2.05495028 19.2434678,1.18016035 20.2813848,0.555781822 C20.6337309,0.350263187 20.9973828,0.164710285 21.3705709,0 C18.8805041,0.155075861 16.5191753,1.16070953 14.6813027,2.84875499 C12.8434302,4.53680537 11.6404493,6.80493265 11.2735531,9.273932 L10.5219665,9.273932 C8.15798335,9.273932 5.8628178,10.0704072 4.00655621,11.5349478 C2.15028971,12.9995376 0.841059287,15.0468649 0.289935437,17.3468807 C-0.261189396,19.6469457 -0.0220959367,22.0656336 0.968671711,24.213092 C1.9594339,26.3605505 3.64414302,28.1116156 5.75118581,29.1840415 C5.86330935,27.4044027 6.65982402,25.7373867 7.97369962,24.5325182 C9.28757523,23.3276988 11.016716,22.6787154 12.798453,22.721699 L16.9592639,22.8197645 C17.9844496,22.8171088 18.9723756,22.4348302 19.7326135,21.74665 C20.4928515,21.0584699 20.9715762,20.1131259 21.0764739,19.0927819 C21.2071782,17.7087495 21.348795,16.2920613 21.4359476,15.5727992 C21.4455821,15.4575205 21.4150074,15.3424386 21.3495324,15.247078 C21.2840082,15.1517665 21.1875161,15.0820288 21.0764739,15.0497174 Z M32.9272102,10.004063 C32.7817592,8.21660441 32.1976944,6.49268683 31.2267762,4.98521181 C30.2558581,3.47771712 28.9281206,2.23325843 27.3612912,1.36221112 C26.3598475,0.88489649 25.2535061,0.670455562 24.1463783,0.73909161 C23.0392504,0.807727657 21.9678094,1.15717839 21.0329222,1.75452741 C20.1966408,2.25107646 19.4976014,2.94876316 18.9992144,3.78423344 C18.5008766,4.61969879 18.2189702,5.56647395 18.1789349,6.53862124 C18.173059,7.5345718 18.4164768,8.51621089 18.8871892,9.39383361 C18.8817821,9.32852215 18.8817821,9.26291561 18.8871892,9.19765333 C18.8871892,7.94616185 19.3840523,6.74596545 20.2685552,5.86101486 C21.1530089,4.97611345 22.3526473,4.47895457 23.6035057,4.47895457 L24.1698746,4.47895457 L23.6035057,5.8956378 C23.170053,5.88708043 22.7392057,5.96394926 22.3355412,6.12196561 C21.9318276,6.27998196 21.5631619,6.51599829 21.2506316,6.8165392 C20.6194759,7.42352265 20.2551358,8.25653882 20.2377839,9.13229269 C20.2204812,10.0079974 20.551543,10.854784 21.1582194,11.4863085 C21.7648958,12.1177837 22.5974905,12.4823082 23.4727522,12.4996689 L27.6553881,12.4996689 C27.779309,12.5046853 27.8991008,12.5454557 28.0004101,12.6170623 C28.1016703,12.6886688 28.1800732,12.7881114 28.2261319,12.9032917 C28.2721905,13.0185212 28.2839387,13.1446195 28.26,13.2663408 C28.2360121,13.3881113 28.1773697,13.5002915 28.0910527,13.5894063 L26.5770654,14.9298649 C26.2770206,15.1981436 26.0534617,15.5411763 25.9290984,15.924045 C25.8047352,16.3069138 25.7839916,16.7158973 25.8690796,17.109389 C26.1849525,18.547864 26.6533054,20.8145847 26.8275615,21.8607976 C27.3051557,24.3596985 26.7935459,26.9464848 25.4006775,29.075058 C26.6673147,29.6528283 28.0382107,29.9666479 29.4299485,29.997484 C30.8216371,30.02832 32.2050677,29.7754348 33.4960369,29.2543694 C34.787006,28.7332548 35.9584292,27.9547304 36.9391293,26.9662552 C37.9197802,25.9777801 38.689161,24.7999607 39.2004267,23.5045512 C39.7116924,22.2091417 39.954127,20.8231421 39.9129839,19.4309949 C39.8718408,18.0388477 39.5480048,16.6696186 38.9611381,15.4066681 C38.3742713,14.1437176 37.5367119,13.0134556 36.4993848,12.0846362 C35.4620576,11.1558659 34.2466403,10.4479645 32.9272102,10.004063 Z" id="形状" fill="url(#linearGradient-1)"/>
            <path d="M47.9828006,26.8521051 C47.8895036,26.853829 47.7967964,26.8364684 47.7105778,26.8008127 C47.6243592,26.7651569 47.5464478,26.7120422 47.4817592,26.6447635 C47.412745,26.5785668 47.3578384,26.4990422 47.3204311,26.4110095 C47.2829747,26.3229767 47.2639015,26.2282554 47.2639015,26.1325997 L47.2639015,8.96871896 C47.2639015,8.87306325 47.2829747,8.77834196 47.3204311,8.6903092 C47.3578384,8.60227644 47.412745,8.52275187 47.4817592,8.45650598 C47.5464478,8.38927649 47.6243592,8.33611257 47.7105778,8.30050602 C47.7967964,8.2648503 47.8895036,8.24748964 47.9828006,8.24945686 L55.8251569,8.24945686 C56.802367,8.20445687 57.7781023,8.36404699 58.6899356,8.7180469 C59.3859766,9.01873534 60.0097591,9.4645549 60.5195009,10.0258007 C60.9623914,10.5208005 61.3030385,11.0985709 61.5217802,11.7258166 C61.7115202,12.276882 61.8142551,12.8541114 61.8265439,13.4367506 C61.8329341,13.9213734 61.759201,14.4036848 61.6087853,14.8643568 C61.4873714,15.2487501 61.3153274,15.6151926 61.0970773,15.9541434 C60.9176599,16.2196187 60.7092409,16.4644875 60.4762441,16.6842743 C60.3297609,16.8383562 60.1650902,16.9737497 59.9861644,17.0875037 C60.587827,17.5113889 61.1019928,18.0479953 61.5001518,18.6676672 C61.9912146,19.4407818 62.234534,20.3458471 62.1971759,21.2613387 C62.1912772,21.9462238 62.0659309,22.6248138 61.8265439,23.2664693 C61.5792921,23.9288298 61.2101348,24.5387641 60.737751,25.0646 C60.2348909,25.6139933 59.6224142,26.0519932 58.9401368,26.3505177 C58.1570907,26.6904029 57.3101426,26.8576651 56.4568043,26.8409438 L47.9828006,26.8521051 Z M58.2106702,13.611144 C58.2293492,13.3253572 58.18216,13.0390294 58.0730349,12.7744393 C57.9634183,12.5098492 57.7943236,12.2740788 57.5790228,12.0854722 C56.9955478,11.7030953 56.3029477,11.5231445 55.6073983,11.5732593 L50.8801202,11.5732593 L50.8801202,15.6598975 L55.6073983,15.6598975 C56.3206437,15.7156188 57.0324144,15.5357172 57.6330938,15.1476846 C57.8434791,14.9542584 58.0071667,14.7151929 58.1108846,14.4488815 C58.2146026,14.1825701 58.2563847,13.8959964 58.2322985,13.611144 L58.2106702,13.611144 Z M50.8584918,23.5280594 L55.7705944,23.5280594 C56.5492165,23.605125 57.3283301,23.3830267 57.9491632,22.9068629 C58.1649556,22.6930268 58.3365081,22.4384695 58.453498,22.1578958 C58.5709795,21.877273 58.6309491,21.5762403 58.6309491,21.2722075 C58.6309491,20.9681748 58.5709795,20.6671421 58.453498,20.3865684 C58.3365081,20.1059456 58.1649556,19.8513882 57.9491632,19.6375522 C57.3494669,19.1675851 56.5959141,18.9383065 55.8359711,18.994618 L50.8801202,18.994618 L50.8584918,23.5280594 Z" id="形状" fill="url(#linearGradient-2)"/>
            <path d="M66.2382442,26.8522061 C66.1453404,26.8536815 66.0529282,26.8367635 65.9664146,26.8024848 C65.879901,26.7682553 65.8012524,26.7172553 65.734401,26.6524848 C65.6675496,26.5877144 65.6144617,26.5104521 65.5771036,26.4250259 C65.540237,26.3396488 65.5205748,26.24778 65.5191002,26.15478 L65.5191002,8.96911241 C65.5176255,8.87424358 65.5353215,8.78006328 65.5712049,8.69212887 C65.6065968,8.60419447 65.6596847,8.52432564 65.7265361,8.45724369 C65.7933875,8.39016174 65.8735108,8.33724372 65.9614991,8.30163717 C66.0489957,8.26598144 66.1433742,8.24837489 66.2382442,8.24957079 L68.416813,8.24957079 C68.5097168,8.24788309 68.6026206,8.26524374 68.6886426,8.30089947 C68.7751561,8.33650602 68.8528217,8.38966994 68.9177069,8.45689943 C68.9865245,8.52314531 69.0415786,8.60266988 69.0789367,8.69070264 C69.1162949,8.77873541 69.1354655,8.87345669 69.1354655,8.96911241 L69.1354655,26.15478 C69.1354655,26.2504358 69.1162949,26.345157 69.0789367,26.4331898 C69.0415786,26.5212226 68.9865245,26.6007471 68.9177069,26.666993 C68.8528217,26.7342225 68.7751561,26.7873864 68.6886426,26.822993 C68.6026206,26.8586487 68.5097168,26.8760094 68.416813,26.8743217 L66.2382442,26.8522061 Z" id="路径" fill="url(#linearGradient-3)"/>
            <path d="M86.1049046,8.24963919 C86.1997746,8.24832571 86.2936614,8.26593226 86.3816497,8.30153881 C86.4696379,8.33719454 86.5492697,8.39011256 86.6166126,8.45719451 C86.683464,8.52427646 86.7365519,8.60414529 86.7719438,8.69207969 C86.8073357,8.7800141 86.8250317,8.8741944 86.823557,8.96906323 L86.823557,10.8979152 C86.8255232,10.9912594 86.8083188,11.0840135 86.7724354,11.1702758 C86.7370435,11.256538 86.6839556,11.3344888 86.6166126,11.3992101 C86.5507444,11.4682593 86.4711126,11.5231445 86.3831243,11.5606199 C86.2951361,11.5980953 86.2002661,11.6173248 86.1049046,11.6171773 L81.2906213,11.6171773 L81.2906213,26.1547309 C81.292096,26.2495505 81.2744,26.34378 81.2385166,26.4316652 C81.2031246,26.5195996 81.1500368,26.5994684 81.0831854,26.6665504 C81.016334,26.7336323 80.9362106,26.7865995 80.8482224,26.8222061 C80.7607257,26.8578126 80.6663473,26.8754192 80.5714773,26.8741057 L78.4804051,26.8741057 C78.3855351,26.8754192 78.2911567,26.8578126 78.2031685,26.8222061 C78.1156718,26.7865995 78.0355484,26.7336323 77.9686971,26.6665504 C77.9013541,26.5994684 77.8487578,26.5195996 77.8128743,26.4316652 C77.7774824,26.34378 77.7597865,26.2495505 77.7612611,26.1547309 L77.7612611,11.5736035 L72.9253495,11.5736035 C72.8294964,11.5737511 72.7351179,11.5544724 72.6471297,11.5170462 C72.5591415,11.4795708 72.4795097,11.4246855 72.4131498,11.3556364 C72.3462985,11.2909151 72.2932106,11.2129643 72.2573271,11.126702 C72.2219352,11.0403906 72.2042392,10.9476857 72.2062055,10.8543414 L72.2062055,8.96906323 C72.2047308,8.8741944 72.2224268,8.7800141 72.2583102,8.69207969 C72.2937021,8.60414529 72.34679,8.52427646 72.4136414,8.45719451 C72.4804928,8.39011256 72.5606161,8.33719454 72.6486044,8.30153881 C72.7361011,8.26593226 72.8304795,8.24832571 72.9253495,8.24963919 L86.1049046,8.24963919 Z" id="路径" fill="url(#linearGradient-4)"/>
            <path d="M104.49002,12.5541115 C104.172476,11.6842592 103.666667,10.8953578 103.008475,10.243817 C102.32374,9.56493192 101.49842,9.04416157 100.59052,8.71814526 C99.4874716,8.35706339 98.3313358,8.18394868 97.1702844,8.20593228 L90.6350694,8.20593228 C90.5421656,8.20407318 90.4492619,8.22132572 90.3632399,8.25698145 C90.2767263,8.29258799 90.1990607,8.34575191 90.1341755,8.4129814 C90.0653579,8.47922729 90.0103038,8.55875186 89.9729457,8.64678462 C89.9355876,8.73481739 89.916417,8.82953867 89.916417,8.92519439 L89.916417,26.1544358 C89.916417,26.2501407 89.9355876,26.3448128 89.9729457,26.4328455 C90.0103038,26.5208783 90.0653579,26.6004029 90.1341755,26.6666488 C90.1990607,26.7339274 90.2767263,26.7870422 90.3632399,26.8226979 C90.4492619,26.8583044 90.5421656,26.8756651 90.6350694,26.8736979 L97.333972,26.8736979 C98.4660217,26.8945012 99.5931558,26.7212389 100.66671,26.3614849 C101.558882,26.0506161 102.369946,25.5442556 103.04141,24.8794361 C103.695668,24.2272068 104.198037,23.4382562 104.511649,22.5690925 C104.872449,21.5965517 105.085784,20.5753225 105.143787,19.5395359 C105.209164,18.2318313 105.209164,16.9132087 105.143787,15.6055041 C105.081852,14.5610618 104.861635,13.5321112 104.49002,12.5541115 Z M101.527422,19.517749 C101.499895,20.0616341 101.389787,20.5981422 101.200539,21.1088305 C101.028003,21.5874042 100.752732,22.0225516 100.394389,22.3838302 C100.016876,22.7557317 99.5636625,23.041912 99.065718,23.2229939 C98.4581568,23.4406168 97.8156953,23.544043 97.1702844,23.5281086 L93.4782197,23.5281086 L93.4782197,11.5406527 L96.9962742,11.5406527 C97.6662628,11.524374 98.3337936,11.6277019 98.9678987,11.8457674 C99.4805899,12.0210952 99.9465834,12.3118984 100.329013,12.6958 C100.696695,13.0537835 100.979339,13.4894227 101.157282,13.9708488 C101.346039,14.4777503 101.456147,15.0106682 101.483674,15.5510123 C101.575594,16.8712579 101.590341,18.1957821 101.527422,19.517749 Z" id="形状" fill="url(#linearGradient-5)"/>
            <path d="M120.959549,23.5282561 L113.161039,23.5282561 C112.898057,23.5282561 112.64589,23.4237971 112.460082,23.2377972 C112.274275,23.0518464 112.169574,22.7996006 112.169574,22.5365843 L112.169574,19.1147163 L120.164705,19.1147163 C120.257609,19.1166835 120.350513,19.0993229 120.436535,19.0637163 C120.523048,19.0280606 120.600714,18.9749459 120.665599,18.9076672 C120.734417,18.8414213 120.789471,18.7618967 120.826829,18.673864 C120.864187,18.5858312 120.883358,18.4911099 120.883358,18.3954542 L120.883358,16.510176 C120.87795,16.3211269 120.800285,16.1413728 120.666582,16.0076515 C120.533371,15.8739303 120.353462,15.7963729 120.164705,15.7909139 L112.245765,15.7909139 L112.245765,12.6741606 C112.245765,12.3851279 112.360788,12.1079477 112.564783,11.9036034 C112.76927,11.6992101 113.046507,11.5844232 113.335049,11.5844232 L120.817981,11.5844232 C120.911868,11.5830953 121.00428,11.5631281 121.090302,11.5257511 C121.176324,11.4883249 121.25399,11.4341773 121.318875,11.366456 C121.386218,11.3017347 121.439306,11.2237839 121.475189,11.1374725 C121.510581,11.0512102 121.528277,10.9585053 121.526311,10.8651611 L121.526311,8.96896487 C121.527294,8.87503046 121.510089,8.78173541 121.475189,8.69453871 C121.440289,8.60734201 121.388675,8.52796498 121.322807,8.46103057 C121.256939,8.39409616 121.17829,8.34093224 121.091777,8.30463717 C121.004772,8.26839128 120.911868,8.24970276 120.817981,8.24970276 L112.03882,8.24970276 C111.139767,8.24970276 110.276598,8.60640758 109.640035,9.24171889 C109.002981,9.87698102 108.643654,10.7390136 108.640705,11.638915 L108.640705,23.5064693 C108.643654,24.3948133 108.998065,25.2457311 109.627255,25.8728293 C110.255953,26.4999275 111.107325,26.852351 111.995563,26.852351 L120.959549,26.852351 C121.052944,26.8540749 121.145848,26.8367143 121.23187,26.8010586 C121.317892,26.7654028 121.396049,26.7122881 121.460934,26.6450094 C121.529752,26.5788127 121.584806,26.499239 121.622164,26.4112062 C121.659522,26.3232226 121.678693,26.2285013 121.678693,26.1328456 L121.678693,24.2475182 C121.673285,24.0585183 121.59562,23.8787151 121.461917,23.7449938 C121.328214,23.6113217 121.148797,23.5337643 120.959549,23.5282561 Z" id="路径" fill="url(#linearGradient-6)"/>
            <path d="M137.298323,23.5283545 L129.499322,23.5283545 C129.235357,23.5284037 128.982207,23.4242398 128.794925,23.2385841 C128.607151,23.0529284 128.500484,22.8006826 128.497534,22.5366826 L128.497534,19.1148147 L136.502988,19.1148147 C136.596384,19.1167819 136.689288,19.0994212 136.77531,19.0637655 C136.861823,19.028159 136.939489,18.974995 137.004374,18.9077655 C137.073191,18.8415197 137.128246,18.7619951 137.165604,18.6739623 C137.202962,18.5859296 137.222132,18.4912083 137.222132,18.3955526 L137.222132,16.5102252 C137.216725,16.3212252 137.13906,16.1414712 137.005357,16.0077499 C136.871654,15.8740286 136.692237,15.7964713 136.502988,15.7910123 L128.475414,15.7910123 L128.475414,12.674259 C128.475414,12.3852263 128.590438,12.108046 128.794433,11.9036526 C128.99892,11.6993084 129.276156,11.5844724 129.564699,11.5844724 L137.036816,11.5844724 C137.13267,11.5846199 137.227048,11.5653904 137.315036,11.527915 C137.403024,11.4904888 137.482656,11.4355544 137.549016,11.3665544 C137.615867,11.3018331 137.668955,11.2238331 137.704839,11.1375709 C137.740231,11.0513086 137.757927,10.9585545 137.75596,10.8652595 L137.75596,8.96906323 C137.757435,8.8741944 137.739739,8.7800141 137.703856,8.69207969 C137.668464,8.60414529 137.615376,8.52427646 137.548525,8.45719451 C137.481673,8.39011256 137.40155,8.33719454 137.313562,8.30153881 C137.226065,8.26593226 137.131686,8.24832571 137.036816,8.24963919 L128.323033,8.24963919 C127.397927,8.24963919 126.51018,8.61683381 125.854447,9.27053856 C125.199205,9.92419412 124.829556,10.8111611 124.826607,11.7370789 L124.826607,23.397584 C124.826607,24.3138133 125.190357,25.1924688 125.838225,25.8403211 C126.485602,26.4882226 127.36401,26.8524488 128.279776,26.8524488 L137.298323,26.8524488 C137.391719,26.8541733 137.484131,26.8367635 137.570644,26.8011569 C137.656667,26.7655012 137.734824,26.7123865 137.799217,26.6451078 C137.868526,26.5788619 137.923089,26.4993373 137.960447,26.4113046 C137.998297,26.3232718 138.017467,26.2285997 138.016994,26.1328948 L138.016994,24.2476166 C138.011569,24.0585675 137.934395,23.8788134 137.800692,23.7450921 C137.666989,23.6113709 137.48708,23.5338627 137.298323,23.5283545 Z" id="路径" fill="url(#linearGradient-7)"/>
            <path d="M155.890875,25.9798457 L152.231253,19.4412736 C153.29596,19.0616016 154.212217,18.3513886 154.845339,17.4142577 C155.450934,16.4331596 155.761105,15.2980288 155.738493,14.1449471 C155.789123,13.3387834 155.659844,12.5313902 155.360488,11.7812428 C155.061131,11.0311447 154.598579,10.3569809 154.006747,9.80768596 C152.572392,8.69124363 150.776252,8.14406344 148.9634,8.2710962 L142.101301,8.2710962 C142.007906,8.26912898 141.915493,8.28648963 141.82898,8.32214536 C141.742958,8.35775191 141.664801,8.41091583 141.600407,8.47814532 C141.531589,8.54439121 141.476535,8.62391578 141.439177,8.71194854 C141.401819,8.7999813 141.382157,8.89470259 141.38263,8.9903583 L141.38263,26.1542391 C141.382157,26.2498948 141.401819,26.3446161 141.439177,26.4326488 C141.476535,26.5206816 141.531589,26.6002062 141.600407,26.6664029 C141.664801,26.7336815 141.742958,26.7868454 141.82898,26.822452 C141.915493,26.8581077 142.007906,26.8754684 142.101301,26.8737807 L144.27987,26.8737807 C144.373265,26.8754684 144.465677,26.8581077 144.552191,26.822452 C144.638213,26.7868454 144.71637,26.7336815 144.780764,26.6664029 C144.850073,26.6002062 144.904635,26.5206816 144.941993,26.4326488 C144.979843,26.3446161 144.999014,26.2498948 144.998522,26.1542391 L144.998522,19.9425686 L148.527882,19.9425686 L152.013494,26.1324522 C152.102466,26.3098456 152.224371,26.4688455 152.37282,26.6010422 C152.591071,26.7840422 152.872731,26.873993 153.15685,26.8516651 L155.411609,26.8516651 C155.488783,26.8530422 155.565466,26.8382389 155.636741,26.8082389 C155.708017,26.7781897 155.77241,26.7336323 155.825498,26.6773209 C155.880061,26.6250914 155.923318,26.562534 155.953302,26.4932881 C155.983287,26.4240423 155.999017,26.3495341 156,26.2740915 C155.989677,26.1682063 155.952319,26.0667965 155.890875,25.9798457 Z M151.239788,16.0847663 C150.496558,16.4765859 149.661407,16.661012 148.821832,16.6187661 L144.976894,16.6187661 L144.976894,11.5731117 L148.821832,11.5731117 C149.657474,11.5324396 150.489184,11.7049641 151.239788,12.0744067 C151.561756,12.2890296 151.817364,12.5896688 151.977119,12.9421933 C152.136874,13.2947178 152.194878,13.6849636 152.143756,14.0686684 C152.193895,14.4554716 152.135891,14.8484715 151.976136,15.2042911 C151.816381,15.5601107 151.561756,15.8648319 151.239788,16.0847663 Z" id="形状" fill="url(#linearGradient-8)"/>
        </g>
    </g>
</svg>