<svg version="1.1" xmlns="http://www.w3.org/2000/svg" style="display: block;" viewBox="0 0 2048 2048" width="2048" height="2048">
<path transform="translate(0,0)" fill="rgb(246,170,2)" d="M 426.368 776.01 C 376.497 717.48 340.865 655.569 346.381 574.994 C 350.579 513.676 384.81 466.986 430.237 428.333 C 437.372 422.262 446.104 415.21 454.277 410.528 C 410.468 499.469 421.123 589.418 469.743 673.793 C 571.017 849.54 797.941 955.813 817.781 1175.62 C 829.645 1305.61 749.548 1442.96 637.67 1507.2 C 632.255 1506.03 633.6 1506.41 630.16 1502.29 C 667.284 1473.84 696.762 1425.59 703.463 1379.29 C 715.432 1296.59 679.216 1239.37 605.398 1203.44 C 555.199 1179.01 502.993 1167.88 454.092 1141.21 C 414.347 1119.54 387.748 1097.49 360.997 1061.32 C 371.657 1064.92 383.994 1073.54 394.902 1078.43 C 443.778 1100.37 498.612 1110.78 551.997 1111.62 C 567.647 1111.87 607.578 1109.11 619.64 1100.9 L 619.15 1099.74 C 616.051 1098.77 594.498 1096.51 588.489 1095.56 C 559.265 1090.95 534.383 1086.6 505.937 1078.66 C 416.954 1053.81 345.025 1009.71 299.103 927.318 C 283.049 898.515 271.851 870.511 263.814 838.529 C 262.533 833.436 259.624 824.294 260.957 819.627 C 265.406 821.248 272.75 835.106 276.315 839.683 C 290.12 857.41 306.53 877.256 322.87 892.537 C 382.897 948.676 482.678 992.022 565.203 989.488 C 552.141 982.971 533.82 976.375 520 970.926 C 413.319 928.866 313.673 849.606 291.043 731.159 C 282.416 686.004 283.331 613.84 309.996 573.55 C 309.591 593.337 309.394 609.981 312.489 629.699 C 320.611 681.449 348.484 725.021 384.564 761.875 C 393.979 771.492 403.038 780.501 414.031 788.489 C 425.271 798.189 462.336 822.05 476.35 826.138 C 469.479 818.582 459.525 810.037 452.007 802.731 C 442.874 793.856 434.993 785.415 426.368 776.01 z"/>
<path transform="translate(0,0)" fill="rgb(246,170,2)" d="M 1435.88 943.816 C 1442.29 941.4 1465.78 942.343 1473.81 942.348 L 1541.55 942.409 L 1628.24 942.377 C 1645.41 942.367 1665.49 941.853 1682.37 943.048 C 1690.03 944.741 1697.95 945.093 1705.5 947.162 C 1736.55 955.695 1765.16 972.7 1782.42 1000.6 C 1805.29 1037.59 1808.65 1081.22 1799.66 1122.98 C 1789.24 1171.4 1752.41 1207 1703.59 1215.45 C 1678.89 1219.72 1653.28 1219.08 1628.27 1219.12 C 1595.91 1219.1 1563.41 1218.03 1531.08 1218.53 L 1531.27 1332.58 C 1531.25 1347.53 1532.17 1372.31 1531.25 1386.58 C 1503.97 1387.76 1463.68 1387.68 1436.21 1387.02 L 1436.3 1087.21 L 1436.53 996.613 C 1436.55 981.328 1437.01 958.772 1435.88 943.816 z M 1531.73 1132.26 L 1627.28 1132.39 C 1653.16 1132.32 1677.43 1136.33 1698.64 1119.09 C 1722.5 1091.92 1714.32 1039.78 1674.12 1034.41 C 1656.17 1032.01 1637.21 1032.86 1619.06 1032.87 L 1532.14 1033.01 C 1531.13 1065.14 1531.95 1099.87 1531.73 1132.26 z"/>
<path transform="translate(0,0)" fill="rgb(117,117,116)" d="M 1044.29 941.759 C 1052.68 942.76 1075.9 942.178 1085.66 942.178 L 1167.13 942.165 L 1309.28 942.245 C 1336.04 942.29 1364.56 942.896 1391.08 942.146 C 1393.12 943.721 1393.72 943.491 1393.89 946.378 C 1394.48 955.916 1394.24 966.612 1394.2 976.145 L 1393.82 1034.1 C 1333.42 1035.74 1270.15 1033.15 1209.49 1034.26 C 1188.65 1034.64 1160.96 1033.25 1140.93 1034.5 C 1140.71 1061.99 1139.56 1096.12 1140.54 1123.04 L 1272.13 1123.13 C 1297.97 1123.03 1334.13 1121.94 1359.09 1123.58 C 1358.9 1152.96 1359.44 1182.77 1359.01 1212.01 C 1287.17 1213.73 1212.32 1211.19 1140.16 1211.83 C 1140.19 1233.17 1142.49 1379.21 1139.53 1386.36 C 1131.65 1387.65 1114 1387.17 1105.34 1387.16 L 1044.67 1387.26 L 1044.4 1077.42 L 1044.31 988.742 C 1044.27 974.803 1043.63 955.244 1044.29 941.759 z"/>
<path transform="translate(0,0)" fill="rgb(246,170,2)" d="M 626.953 667.912 C 635.428 678.214 639.57 686.372 649.959 695.469 C 716.875 753.862 817.896 726.25 889.56 773.605 C 900.219 780.648 918.191 799.354 924.181 810.305 C 933.448 827.246 935.985 827.472 949.253 840.266 C 968.866 859.176 981.478 886.866 978.183 914.4 C 977.903 917.557 977.41 918.943 975.806 921.548 L 974.38 922.023 C 971.49 918.572 968.759 911.996 965.249 907.135 C 953.538 890.776 935.186 880.44 915.126 878.906 C 896.996 877.373 879.006 883.161 865.171 894.978 C 850.195 907.728 841.739 925.892 840.394 945.346 C 838.283 975.858 857.604 1007.8 869.434 1036.01 C 908.281 1128.65 898.822 1230.61 841.486 1313.68 L 836.906 1313.98 L 835.474 1312.64 C 835.235 1309.55 835.316 1306.94 835.367 1303.86 C 865.392 1220.32 860.388 1128.19 821.492 1048.4 C 810.174 1025.03 796.501 1002.89 780.685 982.3 C 757.247 951.325 707.866 910.752 721.958 869.964 C 724.883 861.499 731.817 852.243 737.154 845.064 C 702.714 839.289 671.316 829.384 650.148 799.63 C 649.183 798.291 648.243 796.932 647.329 795.556 C 681.36 806.977 698.324 809.132 733.493 801.375 C 692.17 785.034 654.956 769.324 636.037 725.536 C 628.307 707.37 625.186 687.575 626.953 667.912 z M 895.275 823.41 C 908.606 798.003 844.216 783.32 827.516 783.074 C 829.225 788.319 834.299 790.561 837.463 794.775 C 850.489 812.125 871.265 833.547 895.275 823.41 z"/>
<path transform="translate(0,0)" fill="rgb(253,252,248)" fill-opacity="0.0117647" d="M 1044.29 941.759 C 1046.15 938.309 1050.27 938.761 1054.02 938.714 C 1073.82 938.467 1093.65 938.588 1113.46 938.592 L 1228.45 938.627 L 1320.24 938.635 C 1341.96 938.649 1363.7 938.741 1385.42 939.89 C 1389.84 940.123 1389.01 939.708 1391.08 942.146 C 1364.56 942.896 1336.04 942.29 1309.28 942.245 L 1167.13 942.165 L 1085.66 942.178 C 1075.9 942.178 1052.68 942.76 1044.29 941.759 z"/>
<path transform="translate(0,0)" fill="rgb(253,252,248)" fill-opacity="0.0117647" d="M 1435.88 943.816 C 1435.58 941.813 1435.49 942.873 1436.47 940.681 C 1442.29 938.776 1451.9 938.871 1458.21 938.783 C 1504.28 938.506 1550.35 938.488 1596.42 938.73 C 1620.15 938.718 1644 938.511 1667.73 938.927 C 1673.41 939.026 1678.24 939.034 1682.37 943.048 C 1665.49 941.853 1645.41 942.367 1628.24 942.377 L 1541.55 942.409 L 1473.81 942.348 C 1465.78 942.343 1442.29 941.4 1435.88 943.816 z"/>
<path transform="translate(0,0)" fill="rgb(253,252,248)" fill-opacity="0.0117647" d="M 426.368 776.01 C 434.993 785.415 442.874 793.856 452.007 802.731 C 459.525 810.037 469.479 818.582 476.35 826.138 C 462.336 822.05 425.271 798.189 414.031 788.489 C 419.168 788.759 421.525 789.47 425.629 786.894 C 427.512 783.199 426.738 780.256 426.368 776.01 z"/>
<path transform="translate(0,0)" fill="rgb(246,170,2)" fill-opacity="0.901961" d="M 637.67 1507.2 C 630.75 1511.5 611.645 1521.94 604.174 1522.61 L 604.386 1521.27 C 609.103 1516.6 623.792 1506.85 630.16 1502.29 C 633.6 1506.41 632.255 1506.03 637.67 1507.2 z"/>
<path transform="translate(0,0)" fill="rgb(246,170,2)" fill-opacity="0.980392" d="M 835.367 1303.86 C 835.316 1306.94 835.235 1309.55 835.474 1312.64 L 836.906 1313.98 L 841.486 1313.68 C 834.786 1323.89 829.946 1330.68 821.261 1339.23 C 824.238 1329.43 831.2 1313.83 835.367 1303.86 z"/>
</svg>