<svg id="Layer_1" data-name="Layer 1" xmlns="http://www.w3.org/2000/svg" viewBox="0 0 960 159.81"><defs><style>.cls-1{fill:#fff;}.cls-2{fill:#5e75b6;}.cls-3{fill:#bc2340;}.cls-4{fill:#93386f;}.cls-5{fill:#c71b5f;}.cls-6{fill:#802563;}.cls-7{fill:#5e5ca4;}.cls-8{fill:#5265a2;}.cls-9{fill:#765ca1;}.cls-10{fill:#4e7493;}</style></defs><path class="cls-1" d="M201.48,39.71h31.4q12.5,0,19.84,8.56T258.14,70q-1.8,12.72-11.1,20.33Q238,98,223.35,98H212.41L208,123H186.67ZM237,68.85q.84-4-1.3-6.42t-6.41-2.38H219.16L216,77.77h10.34a10.5,10.5,0,0,0,7-2.44A10.73,10.73,0,0,0,237,68.85"/><path class="cls-1" d="M330.1,69.68Q327.08,86,312,92.75L323.32,123H301.91l-9.69-26.88h-9L278.36,123H257.07L272,39.71h32.58q12.38,0,20.08,8.8t5.43,21.17m-29-10.35H289.68L286.31,78h12.25a9.09,9.09,0,0,0,6.73-2.49,11.79,11.79,0,0,0,3.52-6.78A8.2,8.2,0,0,0,307.46,62c-1.39-1.74-3.5-2.62-6.36-2.62"/><path class="cls-1" d="M371.12,124.74a37,37,0,0,1-21.87-6.12,35.3,35.3,0,0,1-13.58-16.77A37.36,37.36,0,0,1,334,80a49.81,49.81,0,0,1,16.83-30Q364.66,37.92,384,37.93q18.91,0,29.35,13.32t7.54,31.15a51,51,0,0,1-16.72,30.21q-13.35,12.14-33.09,12.13m28.64-43.41q1.82-9.87-3.41-16.17T381.5,58.74a25.61,25.61,0,0,0-17.14,6.42,27,27,0,0,0-9.2,16.17q-1.8,10,3.18,16.3,5.22,6.3,14.73,6.3a26.68,26.68,0,0,0,17.26-6.3,26,26,0,0,0,9.43-16.3"/><polygon class="cls-1" points="477.56 70.51 483.1 39.71 504.27 39.71 489.46 122.96 468.29 122.96 473.95 90.97 450.52 90.97 444.86 122.96 423.57 122.96 438.39 39.71 459.67 39.71 454.13 70.51 477.56 70.51"/><path class="cls-1" d="M611.35,124.74q-13.08,0-21.39-5.47a25.44,25.44,0,0,1-10.91-15.22L598,94.3q3.3,10.33,15.2,10.34,9.75,0,10.84-5.7.72-3.93-5.46-6.55-.24-.11-8.67-3.09-11.05-3.8-16.51-10-5.58-6.42-3.65-17.24a26,26,0,0,1,10.86-17.72,35.16,35.16,0,0,1,21.07-6.42,32.14,32.14,0,0,1,18,4.93A28.64,28.64,0,0,1,650.75,57l-18.22,9.76Q628.63,58,619.94,58q-7.49,0-8.57,5.35-.72,2.85,2,4.81T624.19,73a70.3,70.3,0,0,1,9.27,3.75,35.54,35.54,0,0,1,6.77,4.69q7.49,6.08,5.31,19.27-2.17,11.66-11.16,17.84t-23,6.18"/><polygon class="cls-1" points="704 70.51 709.54 39.71 730.71 39.71 715.89 122.96 694.73 122.96 700.39 90.97 676.96 90.97 671.3 122.96 650.01 122.96 664.82 39.71 686.11 39.71 680.57 70.51 704 70.51"/><polygon class="cls-1" points="729.09 122.96 743.91 39.71 765.2 39.71 750.38 122.96 729.09 122.96"/><polygon class="cls-1" points="784.75 122.96 763.46 122.96 778.28 39.71 794.81 39.71 816.36 83.24 824.18 39.71 845.35 39.71 830.54 122.96 814.13 122.96 792.58 79.43 784.75 122.96"/><path class="cls-1" d="M893,75.27h42l-1.44,8.44q-3,18.92-16.13,30t-31.89,11.06q-19.51,0-29.94-12.84t-7.43-31.75a49.91,49.91,0,0,1,17-30.33,47.78,47.78,0,0,1,32.37-11.89,41.56,41.56,0,0,1,21,5.17,34.33,34.33,0,0,1,13.77,14.45L912.72,68q-5.22-9.28-17.46-9.28a25.46,25.46,0,0,0-17,6.3,27.54,27.54,0,0,0-9,16.29q-1.8,10,3.17,16.65t15,6.55q15.21,0,21.55-11H889.71Z"/><path class="cls-1" d="M553.68,123h22.71L563.73,39.71H537.81L495.52,123H519l4.84-10.13H552.6Zm-6.29-59.11,3,28.52H533.65Z"/><polygon class="cls-2" points="29.52 92.16 25.75 113.58 51.08 113.58 54.85 92.16 29.52 92.16"/><polygon class="cls-3" points="78.82 77.72 57.4 77.72 54.85 92.16 76.27 92.16 78.82 77.72"/><polygon class="cls-4" points="72.5 113.57 51.08 113.57 45.83 143.32 67.25 143.32 72.5 113.57"/><polygon class="cls-5" points="76.27 92.16 54.85 92.16 51.08 113.58 72.5 113.58 76.27 92.16"/><polygon class="cls-6" points="83.47 92.16 79.69 113.58 102.98 113.58 106.76 92.16 83.47 92.16"/><polygon class="cls-7" points="124.4 113.57 149.7 113.57 153.48 92.16 128.18 92.16 124.4 113.57"/><polygon class="cls-4" points="131.99 70.52 110.57 70.52 106.76 92.16 128.18 92.16 131.99 70.52"/><polygon class="cls-2" points="141.01 19.36 119.59 19.36 114.35 49.1 135.77 49.1 141.01 19.36"/><polygon class="cls-5" points="106.76 92.16 102.98 113.58 124.4 113.58 128.18 92.16 106.76 92.16"/><polygon class="cls-8" points="37.12 49.1 33.34 70.52 58.67 70.52 62.44 49.1 37.12 49.1"/><polygon class="cls-4" points="83.86 49.1 80.09 70.52 110.57 70.52 114.35 49.1 83.86 49.1"/><path class="cls-5" d="M132,70.52l3.78-21.42Z"/><polygon class="cls-5" points="135.77 49.1 114.35 49.1 110.57 70.52 131.99 70.52 135.77 49.1"/><polygon class="cls-9" points="142.96 49.1 139.19 70.52 157.29 70.52 161.07 49.1 142.96 49.1"/><polygon class="cls-2" points="97.73 143.32 119.16 143.32 123.13 120.77 101.71 120.77 97.73 143.32"/><polygon class="cls-10" points="89.11 19.36 67.69 19.36 62.44 49.1 83.86 49.1 89.11 19.36"/><polygon class="cls-5" points="62.45 49.1 58.67 70.52 80.09 70.52 83.86 49.1 62.45 49.1"/></svg>